<?xml version="1.0" encoding="UTF-8" standalone="no"?>
<svg
   width="33"
   height="33"
   viewBox="0 0 33 33"
   fill="none"
   version="1.1"
   id="svg6"
   sodipodi:docname="search-icon.svg"
   inkscape:version="1.2.2 (b0a8486541, 2022-12-01)"
   xmlns:inkscape="http://www.inkscape.org/namespaces/inkscape"
   xmlns:sodipodi="http://sodipodi.sourceforge.net/DTD/sodipodi-0.dtd"
   xmlns="http://www.w3.org/2000/svg"
   xmlns:svg="http://www.w3.org/2000/svg">
  <defs
     id="defs10" />
  <sodipodi:namedview
     id="namedview8"
     pagecolor="#ffffff"
     bordercolor="#666666"
     borderopacity="1.0"
     inkscape:showpageshadow="2"
     inkscape:pageopacity="0.0"
     inkscape:pagecheckerboard="0"
     inkscape:deskcolor="#d1d1d1"
     showgrid="false"
     inkscape:zoom="7.1515152"
     inkscape:cx="-8.6694915"
     inkscape:cy="17.758475"
     inkscape:window-width="1444"
     inkscape:window-height="808"
     inkscape:window-x="626"
     inkscape:window-y="1691"
     inkscape:window-maximized="0"
     inkscape:current-layer="svg6" />
  <path
     d="M32.0319 27.3577L27.4127 22.7385C26.2184 24.6222 24.6222 26.2184 22.7385 27.4127L27.3577 32.0319C27.9776 32.6517 28.8183 33 29.6948 33C30.5714 33 31.4121 32.6517 32.0319 32.0319C32.6518 31.4121 33 30.5714 33 29.6948C33 28.8182 32.6518 27.9776 32.0319 27.3577Z"
     fill="#F47D21"
     id="path2"
     style="fill:#d6ab00;fill-opacity:1" />
  <path
     opacity="0.35"
     d="M14.8474 29.6948C23.0474 29.6948 29.6948 23.0474 29.6948 14.8474C29.6948 6.64741 23.0474 0 14.8474 0C6.64741 0 0 6.64741 0 14.8474C0 23.0474 6.64741 29.6948 14.8474 29.6948Z"
     fill="#F47D21"
     id="path4"
     style="fill:#d6ab00;fill-opacity:1" />
</svg>
